<?xml version="1.0" encoding="UTF-8"?>
<svg width="50px" height="51px" version="1.1" viewBox="0 0 50 51" xmlns="http://www.w3.org/2000/svg">
 <path d="m46.999 19.5c1.8333 8.8333-0.7 26.3-25.5 25.5-0.1688-0.0054-0.3357-0.0108-0.5008-0.0161 2e-4 0.0053 5e-4 0.0107 8e-4 0.0161-10.098-0.3311-24.108-0.7936-8e-4 -0.0161-0.4933-10.008 5.0121-31.98 26.001-25.484z" fill="#00E391"/>
 <g fill="#342F2F">
  <path d="m48.329 22.23-0.0074-0.0263c-0.0768-0.3188-0.3124-0.5806-0.6293-0.686-0.1176-0.0392-2.9269-0.9563-6.9379-0.6738-3.6925 0.2599-9.1508 1.6299-14.186 6.6815-5.0345 5.0518-6.3998 10.528-6.6586 14.233-0.2812 4.0248 0.6327 6.8433 0.6718 6.9613 0.0952 0.2879 0.3204 0.5138 0.6072 0.6093 0.102 0.034 2.2271 0.7279 5.4051 0.7279 0.4872 0 0.9995-0.0164 1.5327-0.0538 3.6923-0.2598 9.1505-1.6298 14.185-6.6813 8.9081-8.9385 6.575-19.138 6.0168-21.092zm-9.836 0.8457c0.7571-0.1467 1.5282-0.2501 2.3133-0.3086 1.9401-0.1445 3.5835 0.0242 4.7027 0.2155-0.0478 0.0329-0.0936 0.07-0.136 0.1126l-6.88 6.9033v-6.9228zm-1.9156 0.4745v8.3704l-6.4199 6.4417v-11.36c0-0.0314-0.0017-0.0623-0.0047-0.093 1.9868-1.5433 4.1335-2.6655 6.4246-3.3596zm-14.756 18.343c0.3432-4.9134 2.3963-9.2901 6.1023-13.009 0.1057-0.1059 0.2119-0.2102 0.3186-0.3135v11.67c0 0.0138 0.0014 0.027 2e-3 0.0406l-6.2077 6.2288c-0.1863-1.1024-0.3486-2.7088-0.2152-4.6178zm6.254 6.187c-1.9281 0.1435-3.5635-0.0223-4.6822-0.2122l2.9919-3.0021c0.0032 0 0.0063 5e-4 0.0095 5e-4h11.043c-2.8358 1.8825-5.9697 2.961-9.3618 3.2138zm12.883-6.1173c-0.34 0.3412-0.6858 0.6682-1.0368 0.9815h-11.621l5.559-5.5778h10.643c-0.8804 1.5329-2.0361 3.0831-3.5442 4.5963zm4.5155-6.5183h-9.699l10.953-10.99c0.0409-0.0411 0.0764-0.0853 0.1083-0.1312 0.3973 2.3187 0.6482 6.5338-1.3625 11.122z"/>
  <path d="m22.45 27.526c-5.0347-5.0517-10.493-6.4217-14.185-6.6816-4.0109-0.2822-6.8203 0.6347-6.9379 0.6738-0.31683 0.1055-0.55245 0.3673-0.62926 0.6862l-0.00747 0.0262c-0.55819 1.954-2.8912 12.154 6.0169 21.092 2.8262 2.8358 6.0632 4.807 9.6209 5.8585 0.0903 0.0267 0.1815 0.0394 0.2711 0.0394 0.4138 0 0.7955-0.2712 0.9184-0.6896 0.1495-0.5092-0.1407-1.0435-0.6481-1.1934-3.247-0.9599-6.2104-2.768-8.8077-5.374-2.2639-2.2716-3.7357-4.6264-4.67-6.8809h9.4921l4.6228 4.6385c0.1871 0.1877 0.4322 0.2815 0.6773 0.2815s0.4903-0.0938 0.6772-0.2815c0.374-0.3753 0.374-0.9838 0-1.3592l-1.0559-1.0593v-11.167c1.1472 0.7838 2.245 1.7008 3.2905 2.7497 0.374 0.3753 0.9805 0.3753 1.3546 0 0.3741-0.3752 0.374-0.9838 0-1.3591zm-14.319-4.7641c0.41941 0.0295 0.8347 0.0725 1.2462 0.1272v5.9569l-5.7855-5.8052c-0.02203-0.0221-0.04512-0.0427-0.06868-0.0622 1.099-0.1873 2.7024-0.351 4.6081-0.2167zm-5.4193 10.399v-1e-4c-1.0839-3.6637-0.85932-6.8942-0.53052-8.8229 0.01772 0.0212 0.03602 0.0421 0.05584 0.0621l8.7312 8.761h-8.2565v-1e-4zm13.178 2.2199-4.5972-4.6128v-7.5279c1.6004 0.3777 3.1344 0.9569 4.5972 1.7348v10.406z"/>
  <path d="m18.08 44.061c-1.8508-0.5471-3.6079-1.4241-5.2227-2.6064-0.4273-0.3129-1.0264-0.2189-1.3383 0.2098-0.3118 0.4288-0.2181 1.03 0.2091 1.3429 1.793 1.313 3.7479 2.2878 5.8105 2.8974 0.0903 0.0268 0.1815 0.0394 0.2711 0.0394 0.4138 0 0.7955-0.2712 0.9184-0.6896 0.1495-0.5093-0.1407-1.0436-0.6481-1.1935z"/>
  <path d="m10.554 39.469-0.0033-0.0033c-0.374-0.3751-0.97867-0.3735-1.3529 0.0017-0.37402 0.3753-0.37229 0.9855 0.00172 1.3608 0.18706 0.1877 0.43215 0.2815 0.67725 0.2815 0.24511 0 0.49031-0.0938 0.67721-0.2815 0.3741-0.3753 0.3741-0.9838 0-1.3592z"/>
  <path d="m12.265 13.057h-5.186v-4.1803h3.5726c0.5289 0 0.9577-0.43025 0.9577-0.96102s-0.4288-0.96102-0.9577-0.96102h-3.5726v-4.1803h5.186c0.529 0 0.9578-0.43025 0.9578-0.96102s-0.4288-0.96102-0.9578-0.96102h-6.1436c-0.52898 0-0.95777 0.43025-0.95777 0.96102v12.205c0 0.5308 0.42879 0.9611 0.95777 0.9611h6.1437c0.529 0 0.9578-0.4303 0.9578-0.9611 0-0.5307-0.4288-0.9609-0.9578-0.9609z"/>
  <path d="m36.768 0.85266c-3.8816 0-7.0395 3.1686-7.0395 7.0634 0 3.8948 3.1579 7.0634 7.0395 7.0634 3.8815 0 7.0394-3.1686 7.0394-7.0634 0-3.8948-3.1579-7.0634-7.0394-7.0634zm0 12.205c-2.8254 0-5.124-2.3064-5.124-5.1414 0-2.835 2.2985-5.1414 5.124-5.1414 2.8254 0 5.124 2.3064 5.124 5.1414 0 2.835-2.2987 5.1414-5.124 5.1414z"/>
  <path d="m25.997 11.552c-1.9977 2.0047-5.2486 2.0047-7.2463 0-1.9978-2.0045-1.9978-5.2663 0-7.2709 1.9977-2.0046 5.2485-2.0046 7.2463 0 0.3741 0.37528 0.9805 0.37528 1.3546 0 0.374-0.37529 0.374-0.98381 0-1.3592-2.7447-2.7539-7.2106-2.7539-9.9553 0-2.7447 2.754-2.7447 7.2352 0 9.9891 1.3723 1.3771 3.1749 2.0656 4.9777 2.0656 1.8027 0 3.6053-0.6886 4.9777-2.0655 0.374-0.3753 0.374-0.9838 0-1.3592-0.3741-0.3751-0.9806-0.3751-1.3547 1e-4z"/>
 </g>
 <g fill="#00E391">
  <path d="m24.516 16.907c-0.529 0-0.9578 0.4302-0.9578 0.961v2.7177c0 0.5308 0.4288 0.961 0.9578 0.961 0.5289 0 0.9577-0.4302 0.9577-0.961v-2.7177c-1e-4 -0.5308-0.4289-0.961-0.9577-0.961z"/>
  <path d="m30.587 19.881c-0.3741-0.3754-0.9804-0.3753-1.3545 0l-1.9529 1.9595c-0.374 0.3753-0.3741 0.9838 0 1.3591 0.187 0.1877 0.4321 0.2815 0.6772 0.2815s0.4903-0.0939 0.6772-0.2815l1.9529-1.9595c0.3741-0.3754 0.3742-0.9839 1e-4 -1.3591z"/>
  <path d="m22.224 21.486-1.9562-1.9629c-0.3741-0.3754-0.9804-0.3752-1.3545 0-0.374 0.3753-0.3741 0.9838 0 1.3591l1.9562 1.9629c0.187 0.1877 0.4321 0.2815 0.6772 0.2815s0.4903-0.0939 0.6773-0.2815c0.374-0.3753 0.3741-0.9838 0-1.3591z"/>
 </g>
</svg>
