<?xml version="1.0" encoding="UTF-8"?>
<svg width="57px" height="61px" fill="none" version="1.1" viewBox="0 0 57 61" xmlns="http://www.w3.org/2000/svg">
 <path d="m53 28c0 13.858-11.02 25-24.5 25s-24.5-11.142-24.5-25 11.02-25 24.5-25 24.5 11.142 24.5 25z" stroke="#00E391" stroke-width="6"/>
 <g fill="#000">
  <path d="m52.143 15.447c-0.3442-0.5115-1.0361-0.6461-1.5457-0.3008-0.5096 0.3452-0.6437 1.0395-0.2997 1.5508 7.0146 10.426 5.6609 24.46-3.2189 33.37-4.9623 4.9792-11.56 7.7213-18.578 7.7213s-13.616-2.742-18.578-7.7212c-4.9624-4.9793-7.6952-11.6-7.6952-18.642 0-7.0419 2.7329-13.662 7.6952-18.641 9.0402-9.0709 23.186-10.319 33.636-2.9677 0.5033 0.35424 1.1977 0.23174 1.5507-0.27335 0.3529-0.50515 0.2309-1.2018-0.2725-1.556-5.4189-3.8121-12.056-5.61-18.689-5.0615-6.7104 0.55463-13.032 3.4947-17.8 8.2786-5.3829 5.4013-8.3474 12.583-8.3474 20.221 0 7.6387 2.9645 14.82 8.3474 20.221 5.383 5.4011 12.54 8.3757 20.153 8.3757s14.77-2.9746 20.153-8.3757c9.6322-9.665 11.1-24.889 3.49-36.2z"/>
  <path d="m28.5 8.1344c-12.799 0-23.212 10.448-23.212 23.291s10.413 23.291 23.212 23.291 23.212-10.448 23.212-23.291-10.413-23.291-23.212-23.291zm0 44.348c-11.572 0-20.986-9.446-20.986-21.057s9.4141-21.057 20.986-21.057c11.571 0 20.986 9.446 20.986 21.057s-9.4142 21.057-20.986 21.057z"/>
  <path d="m35.586 36.955-3.6579-3.6702c0.2992-0.5532 0.4694-1.1865 0.4694-1.8589 0-1.7677-1.1757-3.2645-2.7833-3.7464v-8.0946c0-0.617-0.4984-1.1171-1.1133-1.1171-0.6148 0-1.1133 0.5001-1.1133 1.1171v8.0946c-1.6076 0.4819-2.7832 1.9786-2.7832 3.7464 0 2.1558 1.748 3.9097 3.8965 3.9097 0.6702 0 1.3014-0.1707 1.8527-0.471l3.6579 3.6703c0.2174 0.2182 0.5023 0.3272 0.7872 0.3272 0.285 0 0.5698-0.1091 0.7872-0.3272 0.4349-0.4364 0.4349-1.1437 1e-4 -1.5799zm-8.7549-5.5291c0-0.924 0.7491-1.6757 1.6699-1.6757s1.67 0.7517 1.67 1.6757c0 0.9239-0.749 1.6756-1.67 1.6756-0.9208 0-1.6699-0.7517-1.6699-1.6756z"/>
  <path d="m28.5 16.025c0.6149 0 1.1133-0.5001 1.1133-1.117v-1.1313c0-0.6169-0.4984-1.117-1.1133-1.117s-1.1133 0.5001-1.1133 1.117v1.1313c0 0.6169 0.4984 1.117 1.1133 1.117z"/>
  <path d="m20.67 15.583c-0.3075-0.5344-0.9885-0.7174-1.5208-0.4089-0.5325 0.3085-0.7149 0.9916-0.4074 1.5259l0.5637 0.9797c0.2062 0.3584 0.5804 0.5586 0.9651 0.5586 0.1888 0 0.3804-0.0482 0.5557-0.1498 0.5324-0.3085 0.7149-0.9915 0.4074-1.5258l-0.5637-0.9797z"/>
  <path d="m14.801 22.199-0.9765-0.5657c-0.5324-0.3084-1.2133-0.1254-1.5207 0.4089-0.3075 0.5343-0.125 1.2174 0.4074 1.5259l0.9765 0.5657c0.1753 0.1016 0.3667 0.1498 0.5556 0.1498 0.3847 0 0.759-0.2003 0.9652-0.5587 0.3074-0.5341 0.125-1.2173-0.4075-1.5259z"/>
  <path d="m13.152 31.426c0-0.617-0.4985-1.1172-1.1133-1.1172h-1.1276c-0.6148 0-1.1133 0.5002-1.1133 1.1172s0.49846 1.1171 1.1133 1.1171h1.1276c0.6147 0 1.1133-0.5002 1.1133-1.1171z"/>
  <path d="m13.688 38.717-0.9765 0.5657c-0.5324 0.3084-0.7149 0.9917-0.4074 1.526 0.2062 0.3583 0.5803 0.5586 0.9651 0.5586 0.1888 0 0.3803-0.0482 0.5556-0.1498l0.9765-0.5657c0.5325-0.3084 0.7149-0.9916 0.4075-1.5259-0.3074-0.5345-0.9884-0.7175-1.5208-0.4089z"/>
  <path d="m20.827 44.762c-0.5322-0.3084-1.2132-0.1254-1.5207 0.4089l-0.5638 0.9798c-0.3075 0.5343-0.1249 1.2175 0.4075 1.5259 0.1753 0.1015 0.3667 0.1498 0.5556 0.1498 0.3848 0 0.7589-0.2003 0.9651-0.5587l0.5638-0.9798c0.3075-0.5343 0.1249-1.2175-0.4075-1.5259z"/>
  <path d="m28.5 46.826c-0.6149 0-1.1133 0.5001-1.1133 1.117v1.1312c0 0.617 0.4984 1.117 1.1133 1.117s1.1133-0.5 1.1133-1.117v-1.1312c-1e-4 -0.6169-0.4984-1.117-1.1133-1.117z"/>
  <path d="m37.695 45.171c-0.3073-0.5341-0.9879-0.7172-1.5208-0.4089-0.5324 0.3084-0.715 0.9916-0.4075 1.5259l0.5637 0.9798c0.2062 0.3584 0.5803 0.5588 0.9652 0.5588 0.1888 0 0.3802-0.0483 0.5555-0.1498 0.5324-0.3084 0.715-0.9918 0.4075-1.526l-0.5636-0.9798z"/>
  <path d="m44.29 39.282-0.9764-0.5657c-0.5327-0.3086-1.2134-0.1254-1.5208 0.4088-0.3074 0.5343-0.125 1.2175 0.4075 1.5259l0.9765 0.5656c0.1753 0.1017 0.3667 0.1498 0.5555 0.1498 0.3847 0 0.759-0.2003 0.9652-0.5586 0.3074-0.5343 0.125-1.2174-0.4075-1.5258z"/>
  <path d="m43.849 31.426c0 0.617 0.4986 1.1171 1.1133 1.1171h1.1276c0.6147 0 1.1133-0.5001 1.1133-1.1171s-0.4986-1.1172-1.1133-1.1172h-1.1276c-0.6148 0-1.1133 0.5002-1.1133 1.1172z"/>
  <path d="m42.2 22.199c-0.5325 0.3085-0.7149 0.9916-0.4075 1.5259 0.2063 0.3584 0.5804 0.5587 0.9653 0.5587 0.1888 0 0.3803-0.0482 0.5555-0.1498l0.9765-0.5656c0.5324-0.3086 0.7149-0.9916 0.4074-1.5259s-0.9881-0.7173-1.5207-0.4089l-0.9765 0.5656z"/>
  <path d="m37.851 15.174c-0.5326-0.3087-1.2133-0.1255-1.5207 0.4088l-0.5637 0.9797c-0.3074 0.5343-0.125 1.2174 0.4075 1.5258 0.1753 0.1017 0.3667 0.1498 0.5555 0.1498 0.3848 0 0.7591-0.2002 0.9652-0.5586l0.5638-0.9797c0.3074-0.5343 0.125-1.2174-0.4076-1.5258z"/>
  <path d="m47.989 13.322c0.6144 0 1.1124-0.4997 1.1124-1.1161s-0.498-1.1161-1.1124-1.1161c-0.6143 0-1.1123 0.4997-1.1123 1.1161s0.498 1.1161 1.1123 1.1161z"/>
 </g>
</svg>
