<?xml version="1.0" encoding="UTF-8"?>
<svg width="33px" height="60px" version="1.1" viewBox="0 0 33 60" xmlns="http://www.w3.org/2000/svg">
 <g fill="#00E391">
  <circle cx="15.974" cy="9.4929" r="5.4866"/>
  <circle cx="15.974" cy="24.856" r="5.4866"/>
  <circle cx="15.974" cy="39.121" r="5.4866"/>
 </g>
 <g fill="#342F2F">
  <path d="m16.265 21.821c-1.3168 0-2.604 0.3918-3.6989 1.1259-1.0948 0.734-1.9482 1.7773-2.4521 2.998-0.50389 1.2207-0.63574 2.5639-0.37885 3.8598s0.89095 2.4862 1.822 3.4205 2.1174 1.5705 3.4089 1.8283c1.2915 0.2577 2.6302 0.1254 3.8467-0.3802 1.2166-0.5056 2.2564-1.3618 2.9879-2.4604 0.7316-1.0986 1.1221-2.3902 1.1221-3.7115-2e-3 -1.7711-0.7041-3.4692-1.9522-4.7216-1.2482-1.2523-2.9405-1.9568-4.7056-1.9588zm0 11.452c-0.9406 0-1.86-0.2798-2.642-0.8041-0.7821-0.5244-1.3916-1.2696-1.7516-2.1415-0.3599-0.8719-0.4541-1.8314-0.2706-2.757s0.6364-1.7759 1.3015-2.4432 1.5124-1.1218 2.4349-1.3059 1.8787-0.0896 2.7477 0.2715c0.8689 0.3612 1.6117 0.9728 2.1342 1.7575s0.8015 1.7073 0.8015 2.651c-0.0015 1.2651-0.5029 2.478-1.3945 3.3726-0.8915 0.8945-2.1003 1.3977-3.3611 1.3991z"/>
  <path d="m16.265 6.5514c-1.3168 0-2.604 0.3918-3.6989 1.1258-1.0948 0.73406-1.9482 1.7774-2.4521 2.9981-0.50389 1.2207-0.63574 2.5639-0.37885 3.8598s0.89095 2.4862 1.822 3.4205 2.1174 1.5705 3.4089 1.8283c1.2915 0.2577 2.6302 0.1254 3.8467-0.3802 1.2166-0.5056 2.2564-1.3619 2.9879-2.4604 0.7316-1.0986 1.1221-2.3902 1.1221-3.7115-2e-3 -1.7711-0.7041-3.4692-1.9522-4.7216-1.2482-1.2524-2.9405-1.9569-4.7056-1.9588zm0 11.452c-0.9406 0-1.86-0.2798-2.642-0.8041-0.7821-0.5244-1.3916-1.2696-1.7516-2.1415-0.3599-0.8719-0.4541-1.8314-0.2706-2.757s0.6364-1.7759 1.3015-2.4432c0.6651-0.66734 1.5124-1.1218 2.4349-1.3059s1.8787-0.08962 2.7477 0.27154c0.8689 0.36116 1.6117 0.97276 2.1342 1.7575 0.5225 0.7847 0.8015 1.7073 0.8015 2.651-0.0015 1.2651-0.5029 2.478-1.3945 3.3726-0.8915 0.8945-2.1003 1.3977-3.3611 1.3991z"/>
  <path d="m16.265 37.09c-1.3168 0-2.604 0.3918-3.6989 1.1259-1.0948 0.734-1.9482 1.7774-2.4521 2.998-0.50389 1.2207-0.63574 2.5639-0.37885 3.8598s0.89095 2.4862 1.822 3.4205 2.1174 1.5705 3.4089 1.8283 2.6302 0.1255 3.8467-0.3802c1.2166-0.5056 2.2564-1.3618 2.9879-2.4604 0.7316-1.0986 1.1221-2.3902 1.1221-3.7115-2e-3 -1.7711-0.7041-3.4692-1.9522-4.7215-1.2482-1.2524-2.9405-1.9569-4.7056-1.9589zm0 11.452c-0.9406 0-1.86-0.2799-2.642-0.8042-0.7821-0.5243-1.3916-1.2696-1.7516-2.1415-0.3599-0.8719-0.4541-1.8314-0.2706-2.757s0.6364-1.7759 1.3015-2.4432 1.5124-1.1218 2.4349-1.3059 1.8787-0.0896 2.7477 0.2715c0.8689 0.3612 1.6117 0.9728 2.1342 1.7575s0.8015 1.7073 0.8015 2.651c-0.0015 1.2651-0.5029 2.478-1.3945 3.3726-0.8915 0.8945-2.1003 1.3977-3.3611 1.3992z"/>
  <path d="m29.581 36.136c0.2251 0 0.4428-0.08 0.6146-0.2259 0.1717-0.1459 0.2863-0.3482 0.3235-0.5709l1.9022-11.452c0.0226-0.1367 0.0153-0.2767-0.0214-0.4104-0.0366-0.1336-0.1019-0.2576-0.1911-0.3634-0.0893-0.1058-0.2004-0.1908-0.3257-0.2492-0.1253-0.0583-0.2617-0.0886-0.3999-0.0888h-3.8044v-2.863h1.9022c0.2251 0 0.4428-0.0801 0.6146-0.226 0.1717-0.1459 0.2863-0.3482 0.3235-0.5709l1.9022-11.452c0.0226-0.13672 0.0153-0.27676-0.0214-0.41038-0.0366-0.13362-0.1019-0.25763-0.1911-0.36341-0.0893-0.10579-0.2004-0.19082-0.3257-0.24918-0.1253-0.05837-0.2617-0.08868-0.3999-0.08883h-3.8044v-1.9087c0-0.25311-0.1002-0.49584-0.2786-0.67482-0.1783-0.17897-0.4202-0.27952-0.6725-0.27952h-2.8878c-0.1154-0.79446-0.5116-1.5208-1.1164-2.0464s-1.3779-0.81545-2.178-0.8166h-8.56c-0.8001 0.001147-1.5731 0.29098-2.1779 0.8166-0.60482 0.52562-1.0011 1.252-1.1164 2.0464h-2.8878c-0.25225 0-0.49416 0.10055-0.67253 0.27952-0.17837 0.17898-0.27857 0.42171-0.27857 0.67482v1.9087h-3.8044c-0.13814 1.5e-4 -0.27458 0.03046-0.39987 0.08883-0.12529 0.05836-0.23641 0.14339-0.32566 0.24918-0.089251 0.10578-0.15449 0.22979-0.19118 0.36341-0.036696 0.13362-0.04397 0.27366-0.021319 0.41038l1.9022 11.452c0.03713 0.2227 0.15176 0.425 0.3235 0.5709 0.17175 0.1459 0.3895 0.226 0.61453 0.226h1.9022v2.863h-3.8044c-0.13814 2e-4 -0.27458 0.0305-0.39987 0.0888-0.12529 0.0584-0.23641 0.1434-0.32566 0.2492s-0.15449 0.2298-0.19118 0.3634c-0.036696 0.1337-0.04397 0.2737-0.021319 0.4104l1.9022 11.452c0.03713 0.2227 0.15176 0.425 0.3235 0.5709 0.17175 0.1459 0.3895 0.2259 0.61453 0.2259h1.9022v1.9087h-3.8044c-0.13814 2e-4 -0.27458 0.0305-0.39987 0.0888-0.12529 0.0584-0.23641 0.1434-0.32566 0.2492s-0.15449 0.2298-0.19118 0.3634c-0.036696 0.1337-0.04397 0.2737-0.021319 0.4104l1.9022 11.452c0.03713 0.2227 0.15176 0.425 0.3235 0.5709 0.17175 0.1459 0.3895 0.2259 0.61453 0.2259h1.9022v0.9544c0 0.2531 0.1002 0.4958 0.27857 0.6748s0.42028 0.2795 0.67253 0.2795h5.7067v5.726c0 0.2532 0.1002 0.4959 0.2786 0.6749 0.1783 0.1789 0.4202 0.2795 0.6725 0.2795h7.6088c0.2523 0 0.4942-0.1006 0.6726-0.2795 0.1784-0.179 0.2786-0.4217 0.2786-0.6749v-5.726h5.7066c0.2523 0 0.4942-0.1005 0.6725-0.2795 0.1784-0.179 0.2786-0.4217 0.2786-0.6748v-0.9544h1.9022c0.2251 0 0.4428-0.08 0.6146-0.2259 0.1717-0.1459 0.2863-0.3482 0.3235-0.5709l1.9022-11.452c0.0226-0.1367 0.0153-0.2767-0.0214-0.4104-0.0366-0.1336-0.1019-0.2576-0.1911-0.3634-0.0893-0.1058-0.2004-0.1908-0.3257-0.2492-0.1253-0.0583-0.2617-0.0886-0.3999-0.0888h-3.8044v-1.9087h1.9022zm-1.9022-27.676h2.6821l-1.5859 9.5434h-1.0962v-9.5434zm0 16.224h2.6821l-1.5859 9.5434h-1.0962v-9.5434zm-22.827 24.813h-1.0962l-1.586-9.5434h2.6821v9.5434zm0-15.269h-1.0962l-1.586-9.5434h2.6821v9.5434zm0-16.224h-1.0962l-1.586-9.5434h2.6821v9.5434zm7.1333-15.269h8.56c0.2949 3.3e-4 0.5825 0.09224 0.8232 0.26312 0.2408 0.17087 0.4229 0.41232 0.5214 0.69121h-11.249c0.0985-0.27889 0.2807-0.52034 0.5214-0.69121 0.2408-0.17088 0.5283-0.26279 0.8232-0.26312zm7.1333 55.352h-5.7066v-4.7717h5.7066v4.7717zm6.6578-6.6804h-19.022v-45.808h19.022v45.808zm4.5843-11.452-1.5859 9.5434h-1.0962v-9.5434h2.6821z"/>
 </g>
</svg>
