<?xml version="1.0" encoding="UTF-8"?>
<svg width="48px" height="58px" version="1.1" viewBox="0 0 48 58" xmlns="http://www.w3.org/2000/svg">
 <path d="m25.248 5.6548-2.3189 1.38-0.9276 0.46 1.8551 1.84 4.6379 5.98v28.06c0 3.312-0.6184 5.6733-0.9276 6.44l2.319 1.84c3.4011-1.84 11.038-5.888 14.377-7.36 3.3392-1.472 2.9373-6.44 2.3189-8.74l-16.696-28.06-4.6379-1.84z" fill="#00E391"/>
 <g fill="#342F2F">
  <path d="m14.77 33.788c1.02 0 1.8462 0.8432 1.8462 1.8833 0 0.52 0.4133 0.9417 0.9231 0.9417 0.5097 0 0.923-0.4217 0.923-0.9417-0.0063-1.7123-1.1439-3.2048-2.7692-3.6329v-1.0754c0-0.5201-0.4133-0.9417-0.9231-0.9417s-0.9231 0.4216-0.9231 0.9417v1.0754c-1.7984 0.4722-2.9712 2.2356-2.7368 4.1148 0.2344 1.8791 1.8029 3.287 3.6599 3.2847 1.02 0 1.8462 0.8433 1.8462 1.8834 0 1.04-0.8262 1.8833-1.8462 1.8833-1.0195 0-1.8462-0.8433-1.8462-1.8833 0-0.5201-0.4133-0.9417-0.9231-0.9417-0.5097 0-0.9231 0.4216-0.9231 0.9417 0.0064 1.7123 1.1444 3.2048 2.7693 3.6328v1.0755c0 0.52 0.4133 0.9417 0.9231 0.9417s0.9231-0.4217 0.9231-0.9417v-1.0727c1.8042-0.4676 2.9829-2.2342 2.7481-4.1175-0.2349-1.8838-1.8097-3.2931-3.6712-3.2848-1.0195 0-1.8462-0.8432-1.8462-1.8833s0.8267-1.8833 1.8462-1.8833z"/>
  <path d="m17.539 24.372h-5.5386c-0.5097 0-0.9231 0.4216-0.9231 0.9417 0 0.52 0.4134 0.9417 0.9231 0.9417h5.5386c0.5097 0 0.923-0.4217 0.923-0.9417 0-0.5201-0.4133-0.9417-0.923-0.9417z"/>
  <path d="m17.539 50.738h-5.5386c-0.5097 0-0.9231 0.4216-0.9231 0.9416s0.4134 0.9416 0.9231 0.9416h5.5386c0.5097 0 0.923-0.4216 0.923-0.9416s-0.4133-0.9416-0.923-0.9416z"/>
  <path d="m46.886 37.084-13.552-23.942c0.8339-0.8437 1.5717-1.7812 2.1987-2.7946 1.5387-2.5427 1.8137-4.9562 0.7734-6.794-2.0702-3.6586-8.6084-3.6292-14.885 0.06667-0.8334 0.49796-1.6348 1.0492-2.3996 1.6507l-0.7451-0.86258c-0.8884-1.0263-2.1657-1.6148-3.508-1.6157-1.3418 9.2e-4 -2.6192 0.58946-3.5076 1.6157l-10.091 11.665c-0.75452 0.8717-1.171 1.995-1.1705 3.1583v29.623c0.0054087 4.6784 3.7216 8.4699 8.3078 8.4749h12.923c4.5862-5e-3 8.3028-3.7965 8.3078-8.4749v-29.623c-0.0018-0.9072-0.2583-1.795-0.7383-2.5587h0.0072c1.1039-0.6511 2.1513-1.3964 3.1312-2.2278l13.349 23.58c1.7858 3.1528 0.7275 7.1852-2.364 9.006l-11.192 6.5916c-0.4922 0.2869-1.02 0.5063-1.5689 0.6516-0.4927 0.1338-0.7861 0.6496-0.6549 1.1522 0.1307 0.5026 0.6364 0.8019 1.1295 0.6681 0.704-0.189 1.381-0.4718 2.0129-0.841l11.192-6.5916c3.9759-2.339 5.3393-7.5236 3.0443-11.579zm-19.194 11.771c-4e-3 3.6388-2.8945 6.5875-6.4616 6.5916h-12.923c-3.5666-0.0041-6.4576-2.9528-6.4616-6.5916v-29.623c0-0.7044 0.25195-1.3844 0.70899-1.9127l10.091-11.664c0.5372-0.6221 1.3102-0.9789 2.1229-0.97936 0.8127 4.6e-4 1.5861 0.35726 2.1234 0.97936l9.0028 10.408c-2.058 0.9904-4.3072 1.4994-6.5824 1.4897 0.0419-0.2358 0.0658-0.4749 0.0716-0.7145-0.0027-2.5992-2.0674-4.7051-4.6154-4.7083-0.1014 0.0032-0.2015 0.0239-0.2961 0.0612-0.4652-0.0584-0.8979 0.2524-1.0015 0.7186-0.3286 1.287-0.1673 2.653 0.4511 3.8237 0.6135 1.0364 1.5677 1.8166 2.6927 2.201-0.8091 0.7532-1.9787 0.9458-2.9793 0.4915-1.0011-0.4547-1.6429-1.4704-1.6362-2.5877 0-0.52-0.4133-0.9416-0.9231-0.9416-0.5097 0-0.923 0.4216-0.923 0.9416-0.0023 2.0875 1.3445 3.9267 3.3078 4.5161 1.963 0.5895 4.0719-0.2119 5.1784-1.9679 0.3633 0.0391 0.7284 0.0598 1.0939 0.0612 2.5769-0.0796 5.1063-0.7293 7.4131-1.9041 0.3521 0.4902 0.5427 1.081 0.5454 1.6884v29.623zm-10.154-32.016c-0.0036 0.138-0.0172 0.2754-0.0406 0.4115-0.8145-0.2161-1.5199-0.7361-1.976-1.458-0.2848-0.5301-0.407-1.1352-0.3511-1.7371 1.3558 0.2028 2.3623 1.3858 2.3677 2.7836zm10.345-1.8042c-0.0919 0.0547-0.1843 0.1016-0.2767 0.1545l-7.3572-8.5062c0.6698-0.51819 1.3697-0.99454 2.0954-1.4268 5.2-3.0641 10.862-3.4103 12.362-0.75314 0.686 1.2102 0.421 2.9381-0.7451 4.8637-0.4611 0.74712-0.9925 1.4465-1.5874 2.0875l-0.0095-0.0171c-0.5693-1.0074-1.4806-1.7679-2.5615-2.1385l-3.6148-1.2465c-0.4778-0.14852-0.9848 0.11771-1.1439 0.60049-0.1596 0.48324 0.0869 1.0079 0.5562 1.184l3.6148 1.2401c0.654 0.2248 1.2052 0.6851 1.5505 1.2947l0.2353 0.4152c-0.9687 0.8474-2.0125 1.6006-3.1182 2.2507v-0.0027z"/>
  <path d="m31.509 38.786c0.2547 0.4501 0.8194 0.6046 1.2607 0.3444l6.3953-3.7668c0.288-0.1669 0.4661-0.4786 0.467-0.8166 4e-4 -0.3379-0.1763-0.6501-0.4634-0.8184-0.2875-0.1683-0.6409-0.1669-0.9267 0.0041l-6.3953 3.7667c-0.4413 0.2603-0.5927 0.836-0.3376 1.2866z"/>
  <path d="m32.678 44.618c0.2543 0.4506 0.819 0.6056 1.2607 0.3453l7.9941-4.7084c0.4417-0.2598 0.5931-0.8359 0.338-1.2865-0.2546-0.4506-0.8194-0.6051-1.2611-0.3453l-7.9941 4.7084c-0.4412 0.2602-0.5927 0.8359-0.3376 1.2865z"/>
  <path d="m33.199 33.296c0.1618 0 0.3209-0.0437 0.4615-0.1265l3.1975-1.8833c0.288-0.1669 0.4661-0.4787 0.467-0.8166 4e-4 -0.3375-0.1763-0.6502-0.4634-0.8185-0.2871-0.1682-0.6409-0.1669-0.9267 0.0042l-3.1975 1.8833c-0.3619 0.2134-0.5381 0.6474-0.4299 1.0594 0.1081 0.4115 0.4737 0.698 0.8915 0.698z"/>
 </g>
</svg>
